<svg width="4286" height="748" viewBox="0 0 4286 748" fill="none" xmlns="http://www.w3.org/2000/svg">
<rect y="197" width="137" height="354" rx="60" fill="white"/>
<rect x="451" y="197" width="136" height="354" rx="60" fill="white"/>
<rect x="901" y="197" width="137" height="354" rx="60" fill="white"/>
<rect x="225" width="137" height="748" rx="60" fill="white"/>
<rect x="676" width="137" height="748" rx="60" fill="white"/>
<path d="M1907 568V228H2028.5C2076.5 228 2112.5 243.833 2136.5 275.5C2160.5 307.167 2172.5 348 2172.5 398C2172.5 448 2160.5 488.833 2136.5 520.5C2112.5 552.167 2076.5 568 2028.5 568H1907ZM2028.5 264H1947V532H2028.5C2063.17 532 2089.17 519.667 2106.5 495C2123.83 470 2132.5 437.667 2132.5 398C2132.5 358.333 2123.83 326.167 2106.5 301.5C2089.17 276.5 2063.17 264 2028.5 264ZM2370.18 538.5C2351.85 513.833 2342.68 482 2342.68 443C2342.68 404 2351.85 372.333 2370.18 348C2388.52 323.333 2415.85 311 2452.18 311C2488.85 311 2516.52 323.333 2535.18 348C2553.85 372.333 2563.18 404 2563.18 443C2563.18 482 2553.85 513.833 2535.18 538.5C2516.52 562.833 2488.85 575 2452.18 575C2415.85 575 2388.52 562.833 2370.18 538.5ZM2398.68 372.5C2386.68 390.5 2380.68 414 2380.68 443C2380.68 472 2386.68 495.667 2398.68 514C2410.68 532 2428.68 541 2452.68 541C2476.68 541 2494.68 532 2506.68 514C2519.02 495.667 2525.18 472 2525.18 443C2525.18 414 2519.02 390.5 2506.68 372.5C2494.68 354.167 2476.68 345 2452.68 345C2428.68 345 2410.68 354.167 2398.68 372.5ZM2877.19 311C2905.86 311 2929.36 321.833 2947.69 343.5C2966.02 365.167 2975.19 396.5 2975.19 437.5C2975.19 478.167 2963.52 511.333 2940.19 537C2917.19 562.333 2887.86 575 2852.19 575C2834.52 575 2816.69 571.833 2798.69 565.5V680.5H2760.69V368L2755.69 318L2788.69 315.5L2797.19 361.5C2815.86 327.833 2842.52 311 2877.19 311ZM2937.19 438.5C2937.19 408.167 2930.86 385 2918.19 369C2905.52 353 2889.36 345 2869.69 345C2850.36 345 2833.86 354.5 2820.19 373.5C2806.52 392.5 2799.36 419.667 2798.69 455V527C2816.02 536.333 2833.86 541 2852.19 541C2876.86 541 2897.19 531.5 2913.19 512.5C2929.19 493.167 2937.19 468.5 2937.19 438.5ZM3170.42 568L3182.92 228H3229.42L3333.92 467.5L3438.92 228H3485.42L3497.92 568H3457.92L3447.92 302L3354.92 515H3313.42L3219.92 302L3210.42 568H3170.42ZM3713.13 568V228H3818.63C3846.97 228 3870.97 237.833 3890.63 257.5C3910.3 277.167 3920.13 301.167 3920.13 329.5C3920.13 357.833 3910.3 381.833 3890.63 401.5C3870.97 421.167 3846.97 431 3818.63 431H3753.13V568H3713.13ZM3817.13 264.5H3753.13V394.5H3817.13C3834.47 394.5 3849.3 388.167 3861.63 375.5C3874.3 362.5 3880.63 347.167 3880.63 329.5C3880.63 311.833 3874.3 296.667 3861.63 284C3849.3 271 3834.47 264.5 3817.13 264.5ZM4150.03 568V264H4055.03V228H4285.03V264H4190.03V568H4150.03Z" fill="white"/>
</svg>
